<svg width="512" height="512" viewBox="0 0 512 512" fill="none" xmlns="http://www.w3.org/2000/svg">
<rect width="512" height="512" rx="20" fill="black"/>
<path d="M223.17 410.806C221.97 410.806 220.756 410.566 219.596 410.065C217.63 409.217 216.029 407.699 215.078 405.78C214.128 403.862 213.889 401.668 214.405 399.59L244.959 276.603H162.635C161.168 276.603 159.722 276.246 158.423 275.561C157.125 274.877 156.012 273.887 155.182 272.676C154.353 271.465 153.83 270.071 153.661 268.612C153.491 267.154 153.679 265.677 154.209 264.308L214.602 108.176C215.259 106.475 216.416 105.013 217.92 103.983C219.424 102.952 221.205 102.4 223.028 102.4H306.129C309.182 102.4 312.029 103.942 313.698 106.5C314.519 107.758 315.012 109.202 315.135 110.7C315.257 112.198 315.004 113.703 314.398 115.078L278.637 196.251H349.365C350.987 196.251 352.579 196.688 353.975 197.516C355.37 198.343 356.516 199.532 357.294 200.955C358.072 202.379 358.452 203.986 358.394 205.607C358.337 207.228 357.844 208.804 356.967 210.169L230.777 406.652C229.958 407.926 228.833 408.974 227.504 409.7C226.175 410.426 224.685 410.806 223.17 410.806Z" fill="url(#paint0_linear_9_37)"/>
<defs>
<linearGradient id="paint0_linear_9_37" x1="256" y1="102.4" x2="256" y2="410.806" gradientUnits="userSpaceOnUse">
<stop stop-color="#9ACBFF"/>
<stop offset="1" stop-color="#7084F8"/>
</linearGradient>
</defs>
</svg>
