<svg width="33" height="50" viewBox="0 0 33 50" fill="none" xmlns="http://www.w3.org/2000/svg"><path d="M11.21 49.694a1.456 1.456 0 0 1-1.412-1.807L14.72 28.07H1.456a1.455 1.455 0 0 1-1.358-1.981L9.83.93A1.455 1.455 0 0 1 11.187 0h13.39a1.456 1.456 0 0 1 1.333 2.043l-5.762 13.08h11.396a1.456 1.456 0 0 1 1.225 2.242l-20.333 31.66a1.456 1.456 0 0 1-1.226.67Z" fill="url(#a)"/><defs><linearGradient id="a" x1="16.5" y1="0" x2="16.5" y2="49.694" gradientUnits="userSpaceOnUse"><stop stop-color="#9ACBFF"/><stop offset="1" stop-color="#7084F8"/></linearGradient></defs></svg>